<?xml version="1.0" encoding="UTF-8"?>
<svg fill="#000000" width="800px" height="800px" version="1.1" viewBox="144 144 512 512" xmlns="http://www.w3.org/2000/svg">
 <path d="m599.63 423.61-188.93-38.496v0.003906c1.4453-4.1641 1.6914-8.6523 0.71875-12.949-0.97266-4.3008-3.1328-8.2383-6.2266-11.375l-22.277-22.277c-1.4805-1.4922-3.4922-2.3281-5.5898-2.3281-2.1016 0-4.1133 0.83594-5.5898 2.3281l-150.36-150.52c-4.4297-4.4219-10.434-6.9062-16.691-6.9062-6.2617 0-12.262 2.4883-16.691 6.9102-4.4258 4.4258-6.918 10.426-6.9219 16.688 0.003906 6.2578 2.4961 12.262 6.9258 16.688l150.28 150.28c-1.4727 1.4844-2.293 3.4961-2.2812 5.5898-0.011719 2.0898 0.80859 4.1016 2.2812 5.5859l22.355 22.281c4.4258 4.4297 10.43 6.9219 16.691 6.9258 2.6875-0.003907 5.3516-0.48047 7.8711-1.418l38.496 188.93h-0.003906c0.47656 2.293 1.9492 4.2539 4.0156 5.3516l24.09 12.988 7.3984-13.855-21.176-11.176-19.914-98.008c5.7305-0.16797 11.43-0.93359 17.004-2.2812l35.738 66.52c0.78906 1.418 1.9609 2.5938 3.3828 3.3828l22.277 11.098 7.0859-14.168-20.387-9.8398-33.141-62.27v0.003906c5.6406-2.6953 10.93-6.082 15.742-10.078l61.48 61.559 11.18-11.18-61.324-61.559c3.9805-4.8359 7.3906-10.121 10.156-15.742l62.188 33.062 9.918 20.074 14.09-7.0859-11.02-22.277c-0.75-1.4531-1.9336-2.6367-3.3828-3.3867l-66.441-35.426v0.003906c1.2461-5.6328 1.8555-11.391 1.8086-17.16l98.402 19.914 11.258 20.859 13.855-7.3984-13.305-24.168c-1.0977-1.875-2.9219-3.2109-5.0391-3.6992zm-400.53-213.33c-1.4922-1.4766-2.3281-3.4883-2.3281-5.5859 0-2.1016 0.83594-4.1133 2.3281-5.5898 1.4766-1.4922 3.4883-2.3281 5.5898-2.3281 2.0977 0 4.1094 0.83594 5.5859 2.3281l150.36 150.36-11.176 11.176zm194.83 172.55-11.102 11.102c-1.4766 1.4883-3.4883 2.3281-5.5859 2.3281-2.1016 0-4.1133-0.83984-5.5898-2.3281l-16.688-16.688 22.277-22.277 16.688 16.688c1.4883 1.4766 2.3281 3.4883 2.3281 5.5898 0 2.0977-0.83984 4.1094-2.3281 5.5859zm66.832 77.934c-12.164 12.062-28.773 18.559-45.895 17.949l-15.742-78.719 1.418-1.418 78.719 15.742c0.62109 17.391-6.0898 34.246-18.5 46.445z"/>
</svg>
